<?xml version="1.0" encoding="utf-8" ?>
<svg baseProfile="full" height="120" version="1.1" width="120" xmlns="http://www.w3.org/2000/svg" xmlns:ev="http://www.w3.org/2001/xml-events" xmlns:xlink="http://www.w3.org/1999/xlink"><defs /><rect fill="rgb(31,161,97)" height="120" width="120" x="0" y="0" /><polygon fill="orange" points="20,20 46,20 60,47 60,60 47,60 20,46" /><polygon fill="orange" points="20,20 46,20 60,47 60,60 47,60 20,46" transform="rotate(90,60,60)" /><polygon fill="orange" points="20,20 46,20 60,47 60,60 47,60 20,46" transform="rotate(180,60,60)" /><polygon fill="orange" points="20,20 46,20 60,47 60,60 47,60 20,46" transform="rotate(270,60,60)" /></svg>