<?xml version="1.0" encoding="utf-8" ?>
<svg baseProfile="full" height="100%" version="1.1" width="100%" xmlns="http://www.w3.org/2000/svg" xmlns:ev="http://www.w3.org/2001/xml-events" xmlns:xlink="http://www.w3.org/1999/xlink"><defs /><rect fill="rgb(103,46,91)" height="120" width="120" x="0" y="0" /><polygon fill="rgb(74,196,231)" points="15,15 45,15 60,45 60,60 45,60 15,45" /><polygon fill="rgb(74,196,231)" points="15,15 45,15 60,45 60,60 45,60 15,45" transform="rotate(90,60,60)" /><polygon fill="rgb(74,196,231)" points="15,15 45,15 60,45 60,60 45,60 15,45" transform="rotate(180,60,60)" /><polygon fill="rgb(74,196,231)" points="15,15 45,15 60,45 60,60 45,60 15,45" transform="rotate(270,60,60)" /></svg>